<svg width="28" height="27" viewBox="0 0 28 27" fill="none" xmlns="http://www.w3.org/2000/svg">
<ellipse cx="14.1465" cy="13.4693" rx="13.4277" ry="13.4139" fill="#FFE500"/>
<path d="M19.6484 4.97976C19.6484 4.84728 19.5958 4.72024 19.502 4.62657C19.4082 4.5329 19.281 4.48027 19.1484 4.48027H16.6484C15.3896 4.41763 14.157 4.85528 13.2202 5.69759C12.2833 6.53991 11.7182 7.71842 11.6484 8.97563V11.6728H9.14844C9.01583 11.6728 8.88865 11.7255 8.79488 11.8191C8.70112 11.9128 8.64844 12.0399 8.64844 12.1723V14.7696C8.64844 14.9021 8.70112 15.0292 8.79488 15.1228C8.88865 15.2165 9.01583 15.2691 9.14844 15.2691H11.6484V21.9622C11.6484 22.0947 11.7011 22.2217 11.7949 22.3154C11.8887 22.4091 12.0158 22.4617 12.1484 22.4617H15.1484C15.281 22.4617 15.4082 22.4091 15.502 22.3154C15.5958 22.2217 15.6484 22.0947 15.6484 21.9622V15.2691H18.2684C18.3796 15.2707 18.4882 15.2353 18.5769 15.1683C18.6657 15.1014 18.7295 15.0068 18.7584 14.8995L19.4784 12.3022C19.4983 12.2284 19.501 12.151 19.4863 12.076C19.4715 12.001 19.4397 11.9304 19.3934 11.8696C19.347 11.8088 19.2873 11.7595 19.2188 11.7254C19.1503 11.6912 19.0749 11.6733 18.9984 11.6728H15.6484V8.97563C15.6733 8.72836 15.7896 8.49923 15.9745 8.33299C16.1594 8.16674 16.3997 8.07531 16.6484 8.07656H19.1484C19.281 8.07656 19.4082 8.02393 19.502 7.93026C19.5958 7.83659 19.6484 7.70955 19.6484 7.57707V4.97976Z" fill="black"/>
</svg>
