<svg width="157" height="27" viewBox="0 0 157 27" fill="none" xmlns="http://www.w3.org/2000/svg">
<ellipse cx="14.1465" cy="13.4693" rx="13.4277" ry="13.4139" fill="#FFE500"/>
<path d="M19.6484 4.97976C19.6484 4.84728 19.5958 4.72024 19.502 4.62657C19.4082 4.5329 19.281 4.48027 19.1484 4.48027H16.6484C15.3896 4.41763 14.157 4.85528 13.2202 5.69759C12.2833 6.53991 11.7182 7.71842 11.6484 8.97563V11.6728H9.14844C9.01583 11.6728 8.88865 11.7255 8.79488 11.8191C8.70112 11.9128 8.64844 12.0399 8.64844 12.1723V14.7696C8.64844 14.9021 8.70112 15.0292 8.79488 15.1228C8.88865 15.2165 9.01583 15.2691 9.14844 15.2691H11.6484V21.9622C11.6484 22.0947 11.7011 22.2217 11.7949 22.3154C11.8887 22.4091 12.0158 22.4617 12.1484 22.4617H15.1484C15.281 22.4617 15.4082 22.4091 15.502 22.3154C15.5958 22.2217 15.6484 22.0947 15.6484 21.9622V15.2691H18.2684C18.3796 15.2707 18.4882 15.2353 18.5769 15.1683C18.6657 15.1014 18.7295 15.0068 18.7584 14.8995L19.4784 12.3022C19.4983 12.2284 19.501 12.151 19.4863 12.076C19.4715 12.001 19.4397 11.9304 19.3934 11.8696C19.347 11.8088 19.2873 11.7595 19.2188 11.7254C19.1503 11.6912 19.0749 11.6733 18.9984 11.6728H15.6484V8.97563C15.6733 8.72836 15.7896 8.49923 15.9745 8.33299C16.1594 8.16674 16.3997 8.07531 16.6484 8.07656H19.1484C19.281 8.07656 19.4082 8.02393 19.502 7.93026C19.5958 7.83659 19.6484 7.70955 19.6484 7.57707V4.97976Z" fill="black"/>
<ellipse cx="57.2871" cy="13.4693" rx="13.4277" ry="13.4139" fill="#FFE500"/>
<path d="M64.9345 10.316C64.9259 9.66974 64.8047 9.02988 64.5766 8.42507C64.3787 7.91491 64.0765 7.4516 63.6892 7.06473C63.3019 6.67786 62.8381 6.37595 62.3274 6.17828C61.7298 5.95416 61.0984 5.83297 60.4602 5.81988C59.6384 5.78319 59.3779 5.77295 57.2919 5.77295C55.206 5.77295 54.9386 5.77295 54.1228 5.81988C53.4849 5.83307 52.8538 5.95425 52.2564 6.17828C51.7457 6.37581 51.2818 6.67768 50.8945 7.06456C50.5072 7.45145 50.205 7.91483 50.0073 8.42507C49.7825 9.02165 49.6615 9.65224 49.6494 10.2896C49.6127 11.1113 49.6016 11.3716 49.6016 13.4554C49.6016 15.5392 49.6016 15.8054 49.6494 16.6212C49.6622 17.2595 49.7827 17.8892 50.0073 18.4874C50.2054 18.9975 50.5078 19.4607 50.8952 19.8474C51.2826 20.2341 51.7465 20.5359 52.2573 20.7334C52.853 20.9665 53.4842 21.0963 54.1237 21.1173C54.9463 21.154 55.2068 21.1651 57.2928 21.1651C59.3787 21.1651 59.6461 21.1651 60.4619 21.1173C61.1001 21.1048 61.7315 20.9839 62.3292 20.7598C62.8397 20.5619 63.3034 20.2599 63.6906 19.8731C64.0779 19.4862 64.3802 19.023 64.5783 18.513C64.8029 17.9157 64.9234 17.2859 64.9362 16.6468C64.9729 15.8259 64.984 15.5656 64.984 13.481C64.9823 11.3972 64.9823 11.1327 64.9345 10.316V10.316ZM57.2868 17.396C55.1052 17.396 53.3378 15.6305 53.3378 13.4511C53.3378 11.2717 55.1052 9.50622 57.2868 9.50622C58.3341 9.50622 59.3386 9.92185 60.0792 10.6617C60.8197 11.4015 61.2358 12.4049 61.2358 13.4511C61.2358 14.4974 60.8197 15.5008 60.0792 16.2406C59.3386 16.9804 58.3341 17.396 57.2868 17.396V17.396ZM61.393 10.2802C61.272 10.2803 61.1522 10.2566 61.0404 10.2104C60.9287 10.1642 60.8271 10.0965 60.7416 10.011C60.656 9.92557 60.5882 9.82412 60.542 9.71246C60.4958 9.60081 60.472 9.48114 60.4721 9.36031C60.4721 9.23956 60.4959 9.12 60.5422 9.00845C60.5884 8.89689 60.6562 8.79553 60.7417 8.71016C60.8272 8.62478 60.9286 8.55705 61.0403 8.51084C61.152 8.46464 61.2717 8.44085 61.3925 8.44085C61.5134 8.44085 61.6331 8.46464 61.7447 8.51084C61.8564 8.55705 61.9579 8.62478 62.0433 8.71016C62.1288 8.79553 62.1966 8.89689 62.2429 9.00845C62.2891 9.12 62.3129 9.23956 62.3129 9.36031C62.3129 9.86889 61.9012 10.2802 61.393 10.2802Z" fill="#111317"/>
<path d="M57.2839 16.0122C58.7006 16.0122 59.8491 14.865 59.8491 13.4497C59.8491 12.0345 58.7006 10.8872 57.2839 10.8872C55.8672 10.8872 54.7188 12.0345 54.7188 13.4497C54.7188 14.865 55.8672 16.0122 57.2839 16.0122Z" fill="#111317"/>
<ellipse cx="100.428" cy="13.4693" rx="13.4277" ry="13.4139" fill="#FFE500"/>
<path d="M108.474 8.19513C107.883 8.47235 107.247 8.65965 106.579 8.74432C107.268 8.30811 107.784 7.62157 108.03 6.81281C107.382 7.21963 106.674 7.50599 105.935 7.65944C105.438 7.09816 104.779 6.72614 104.062 6.60113C103.345 6.47612 102.608 6.60512 101.967 6.96809C101.327 7.33106 100.817 7.9077 100.517 8.60848C100.218 9.30927 100.146 10.095 100.312 10.8436C98.9999 10.774 97.7163 10.4133 96.5446 9.78492C95.3729 9.15659 94.3391 8.27467 93.5105 7.19641C93.2272 7.71338 93.0643 8.31276 93.0643 8.9511C93.0639 9.52576 93.1977 10.0916 93.4537 10.5985C93.7098 11.1053 94.0801 11.5375 94.5319 11.8566C94.0079 11.839 93.4955 11.6892 93.0373 11.4198V11.4648C93.0373 12.2707 93.3009 13.0519 93.7833 13.6757C94.2658 14.2995 94.9375 14.7276 95.6844 14.8872C95.1983 15.0264 94.6887 15.0469 94.194 14.9472C94.4048 15.6407 94.8152 16.2471 95.368 16.6816C95.9208 17.116 96.5881 17.3568 97.2767 17.3702C96.1078 18.3407 94.6643 18.8672 93.1783 18.8649C92.9151 18.8649 92.6521 18.8487 92.3906 18.8162C93.899 19.842 95.6549 20.3864 97.4481 20.3843C103.519 20.3843 106.837 15.0663 106.837 10.4541C106.837 10.3042 106.834 10.1529 106.827 10.003C107.473 9.50926 108.03 8.89783 108.473 8.19738L108.474 8.19513V8.19513Z" fill="#111317"/>
<ellipse cx="143.568" cy="13.4693" rx="13.4277" ry="13.4139" fill="#FFE500"/>
<path d="M139.414 20.9823H136.296V10.9498H139.414V20.9823ZM137.853 9.58129C136.856 9.58129 136.047 8.7559 136.047 7.75984C136.047 7.28132 136.237 6.82239 136.576 6.48403C136.915 6.14566 137.374 5.95557 137.853 5.95557C138.332 5.95557 138.791 6.14566 139.13 6.48403C139.469 6.82239 139.659 7.28132 139.659 7.75984C139.659 8.7559 138.85 9.58129 137.853 9.58129ZM151.086 20.9823H147.974V16.0986C147.974 14.9345 147.951 13.4421 146.353 13.4421C144.732 13.4421 144.483 14.7065 144.483 16.0149V20.9823H141.368V10.9498H144.358V12.3183H144.402C144.818 11.5299 145.835 10.6981 147.352 10.6981C150.508 10.6981 151.089 12.7745 151.089 15.4712V20.9823H151.086Z" fill="#111317"/>
</svg>
