<svg width="28" height="27" viewBox="0 0 28 27" fill="none" xmlns="http://www.w3.org/2000/svg">
<ellipse cx="14.2871" cy="13.4693" rx="13.4277" ry="13.4139" fill="#FFE500"/>
<path d="M21.9345 10.316C21.9259 9.66974 21.8047 9.02988 21.5766 8.42507C21.3787 7.91491 21.0765 7.4516 20.6892 7.06473C20.3019 6.67786 19.8381 6.37595 19.3274 6.17828C18.7298 5.95416 18.0984 5.83297 17.4602 5.81988C16.6384 5.78319 16.3779 5.77295 14.2919 5.77295C12.206 5.77295 11.9386 5.77295 11.1228 5.81988C10.4849 5.83307 9.8538 5.95425 9.25642 6.17828C8.74566 6.37581 8.28179 6.67768 7.89451 7.06456C7.50722 7.45145 7.20505 7.91483 7.00731 8.42507C6.78251 9.02165 6.66146 9.65224 6.6494 10.2896C6.61267 11.1113 6.60156 11.3716 6.60156 13.4554C6.60156 15.5392 6.60156 15.8054 6.6494 16.6212C6.66221 17.2595 6.78265 17.8892 7.00731 18.4874C7.20538 18.9975 7.50778 19.4607 7.8952 19.8474C8.28261 20.2341 8.74652 20.5359 9.25727 20.7334C9.85302 20.9665 10.4842 21.0963 11.1237 21.1173C11.9463 21.154 12.2068 21.1651 14.2928 21.1651C16.3787 21.1651 16.6461 21.1651 17.4619 21.1173C18.1001 21.1048 18.7315 20.9839 19.3292 20.7598C19.8397 20.5619 20.3034 20.2599 20.6906 19.8731C21.0779 19.4862 21.3802 19.023 21.5783 18.513C21.8029 17.9157 21.9234 17.2859 21.9362 16.6468C21.9729 15.8259 21.984 15.5656 21.984 13.481C21.9823 11.3972 21.9823 11.1327 21.9345 10.316ZM14.2868 17.396C12.1052 17.396 10.3378 15.6305 10.3378 13.4511C10.3378 11.2717 12.1052 9.50622 14.2868 9.50622C15.3341 9.50622 16.3386 9.92185 17.0792 10.6617C17.8197 11.4015 18.2358 12.4049 18.2358 13.4511C18.2358 14.4974 17.8197 15.5008 17.0792 16.2406C16.3386 16.9804 15.3341 17.396 14.2868 17.396ZM18.393 10.2802C18.272 10.2803 18.1522 10.2566 18.0404 10.2104C17.9287 10.1642 17.8271 10.0965 17.7416 10.011C17.656 9.92557 17.5882 9.82412 17.542 9.71246C17.4958 9.60081 17.472 9.48114 17.4721 9.36031C17.4721 9.23956 17.4959 9.12 17.5422 9.00845C17.5884 8.89689 17.6562 8.79553 17.7417 8.71016C17.8272 8.62478 17.9286 8.55705 18.0403 8.51084C18.152 8.46464 18.2717 8.44085 18.3925 8.44085C18.5134 8.44085 18.6331 8.46464 18.7447 8.51084C18.8564 8.55705 18.9579 8.62478 19.0433 8.71016C19.1288 8.79553 19.1966 8.89689 19.2429 9.00845C19.2891 9.12 19.3129 9.23956 19.3129 9.36031C19.3129 9.86889 18.9012 10.2802 18.393 10.2802Z" fill="#111317"/>
<path d="M14.2839 16.0122C15.7006 16.0122 16.8491 14.865 16.8491 13.4497C16.8491 12.0345 15.7006 10.8872 14.2839 10.8872C12.8672 10.8872 11.7188 12.0345 11.7188 13.4497C11.7188 14.865 12.8672 16.0122 14.2839 16.0122Z" fill="#111317"/>
</svg>
