<svg width="27" height="27" viewBox="0 0 27 27" fill="none" xmlns="http://www.w3.org/2000/svg">
<ellipse cx="13.5684" cy="13.4693" rx="13.4277" ry="13.4139" fill="#FFE500"/>
<path d="M9.41418 20.9823H6.29561V10.9498H9.41418V20.9823ZM7.85301 9.58129C6.85593 9.58129 6.04688 8.7559 6.04688 7.75984C6.04688 7.28132 6.23716 6.82239 6.57588 6.48403C6.9146 6.14566 7.374 5.95557 7.85301 5.95557C8.33203 5.95557 8.79143 6.14566 9.13015 6.48403C9.46886 6.82239 9.65915 7.28132 9.65915 7.75984C9.65915 8.7559 8.8501 9.58129 7.85301 9.58129ZM21.0859 20.9823H17.9743V16.0986C17.9743 14.9345 17.9506 13.4421 16.3529 13.4421C14.7316 13.4421 14.4829 14.7065 14.4829 16.0149V20.9823H11.3675V10.9498H14.3582V12.3183H14.4017C14.8181 11.5299 15.8351 10.6981 17.3522 10.6981C20.5083 10.6981 21.0885 12.7745 21.0885 15.4712V20.9823H21.0859Z" fill="#111317"/>
</svg>
