<svg width="27" height="27" viewBox="0 0 27 27" fill="none" xmlns="http://www.w3.org/2000/svg">
<ellipse cx="13.4277" cy="13.4693" rx="13.4277" ry="13.4139" fill="#FFE500"/>
<path d="M21.474 8.19513C20.8826 8.47235 20.2472 8.65965 19.5792 8.74432C20.2685 8.30811 20.7841 7.62157 21.0299 6.81281C20.3824 7.21963 19.6737 7.50599 18.9347 7.65944C18.4377 7.09816 17.7794 6.72614 17.0621 6.60113C16.3447 6.47612 15.6084 6.60512 14.9675 6.96809C14.3265 7.33106 13.8168 7.9077 13.5174 8.60848C13.2181 9.30927 13.1458 10.095 13.3119 10.8436C11.9999 10.774 10.7163 10.4133 9.54459 9.78492C8.37286 9.15659 7.33914 8.27467 6.5105 7.19641C6.22717 7.71338 6.06425 8.31276 6.06425 8.9511C6.06393 9.52576 6.19772 10.0916 6.45375 10.5985C6.70977 11.1053 7.08011 11.5375 7.53192 11.8566C7.00795 11.839 6.49554 11.6892 6.03733 11.4198V11.4648C6.03728 12.2707 6.30086 13.0519 6.78334 13.6757C7.26582 14.2995 7.93749 14.7276 8.68438 14.8872C8.1983 15.0264 7.6887 15.0469 7.19404 14.9472C7.40477 15.6407 7.81525 16.2471 8.36801 16.6816C8.92077 17.116 9.58815 17.3568 10.2767 17.3702C9.10784 18.3407 7.6643 18.8672 6.17829 18.8649C5.91506 18.8649 5.65205 18.8487 5.39062 18.8162C6.899 19.842 8.65487 20.3864 10.4481 20.3843C16.5185 20.3843 19.8371 15.0663 19.8371 10.4541C19.8371 10.3042 19.8335 10.1529 19.8272 10.003C20.4727 9.50926 21.0299 8.89783 21.4726 8.19738L21.474 8.19513Z" fill="#111317"/>
</svg>
